<svg id="visual" viewBox="0 0 2560 1440" width="2560" height="1440" xmlns="http://www.w3.org/2000/svg" xmlns:xlink="http://www.w3.org/1999/xlink" version="1.1"><path d="M0 432L213 453L427 598L640 270L853 193L1067 468L1280 558L1493 590L1707 248L1920 123L2133 243L2347 553L2560 524L2560 1441L2347 1441L2133 1441L1920 1441L1707 1441L1493 1441L1280 1441L1067 1441L853 1441L640 1441L427 1441L213 1441L0 1441Z" fill="#05121f"></path><path d="M0 883L213 684L427 906L640 682L853 744L1067 528L1280 657L1493 776L1707 516L1920 627L2133 909L2347 927L2560 652L2560 1441L2347 1441L2133 1441L1920 1441L1707 1441L1493 1441L1280 1441L1067 1441L853 1441L640 1441L427 1441L213 1441L0 1441Z" fill="#002a53"></path><path d="M0 554L213 865L427 1073L640 724L853 952L1067 699L1280 642L1493 681L1707 797L1920 951L2133 591L2347 1081L2560 900L2560 1441L2347 1441L2133 1441L1920 1441L1707 1441L1493 1441L1280 1441L1067 1441L853 1441L640 1441L427 1441L213 1441L0 1441Z" fill="#003f8a"></path><path d="M0 922L213 1079L427 1082L640 1010L853 1005L1067 779L1280 845L1493 843L1707 832L1920 1043L2133 830L2347 1209L2560 1145L2560 1441L2347 1441L2133 1441L1920 1441L1707 1441L1493 1441L1280 1441L1067 1441L853 1441L640 1441L427 1441L213 1441L0 1441Z" fill="#0053c4"></path><path d="M0 1154L213 1251L427 1187L640 1248L853 1146L1067 1186L1280 1078L1493 1043L1707 1351L1920 1142L2133 1112L2347 1366L2560 1286L2560 1441L2347 1441L2133 1441L1920 1441L1707 1441L1493 1441L1280 1441L1067 1441L853 1441L640 1441L427 1441L213 1441L0 1441Z" fill="#0066ff"></path></svg>