<svg id="visual" viewBox="0 0 2560 1440" width="2560" height="1440" xmlns="http://www.w3.org/2000/svg" xmlns:xlink="http://www.w3.org/1999/xlink" version="1.1"><path d="M0 30L85.3 49.2C170.7 68.3 341.3 106.7 512 140.2C682.7 173.7 853.3 202.3 1024 248C1194.7 293.7 1365.3 356.3 1536 370.8C1706.7 385.3 1877.3 351.7 2048 318C2218.7 284.3 2389.3 250.7 2474.7 233.8L2560 217L2560 0L2474.7 0C2389.3 0 2218.7 0 2048 0C1877.3 0 1706.7 0 1536 0C1365.3 0 1194.7 0 1024 0C853.3 0 682.7 0 512 0C341.3 0 170.7 0 85.3 0L0 0Z" fill="#0066ff"></path><path d="M0 937L85.3 915.3C170.7 893.7 341.3 850.3 512 744.7C682.7 639 853.3 471 1024 408.7C1194.7 346.3 1365.3 389.7 1536 423.3C1706.7 457 1877.3 481 2048 533.8C2218.7 586.7 2389.3 668.3 2474.7 709.2L2560 750L2560 215L2474.7 231.8C2389.3 248.7 2218.7 282.3 2048 316C1877.3 349.7 1706.7 383.3 1536 368.8C1365.3 354.3 1194.7 291.7 1024 246C853.3 200.3 682.7 171.7 512 138.2C341.3 104.7 170.7 66.3 85.3 47.2L0 28Z" fill="#acafff"></path><path d="M0 1023L85.3 996.7C170.7 970.3 341.3 917.7 512 898.5C682.7 879.3 853.3 893.7 1024 915.3C1194.7 937 1365.3 966 1536 949.2C1706.7 932.3 1877.3 869.7 2048 850.3C2218.7 831 2389.3 855 2474.7 867L2560 879L2560 748L2474.7 707.2C2389.3 666.3 2218.7 584.7 2048 531.8C1877.3 479 1706.7 455 1536 421.3C1365.3 387.7 1194.7 344.3 1024 406.7C853.3 469 682.7 637 512 742.7C341.3 848.3 170.7 891.7 85.3 913.3L0 935Z" fill="#ffffff"></path><path d="M0 1067L85.3 1067C170.7 1067 341.3 1067 512 1047.7C682.7 1028.3 853.3 989.7 1024 1008.8C1194.7 1028 1365.3 1105 1536 1126.7C1706.7 1148.3 1877.3 1114.7 2048 1093C2218.7 1071.3 2389.3 1061.7 2474.7 1056.8L2560 1052L2560 877L2474.7 865C2389.3 853 2218.7 829 2048 848.3C1877.3 867.7 1706.7 930.3 1536 947.2C1365.3 964 1194.7 935 1024 913.3C853.3 891.7 682.7 877.3 512 896.5C341.3 915.7 170.7 968.3 85.3 994.7L0 1021Z" fill="#ffffff"></path><path d="M0 1340L85.3 1332.8C170.7 1325.7 341.3 1311.3 512 1268.2C682.7 1225 853.3 1153 1024 1167.3C1194.7 1181.7 1365.3 1282.3 1536 1306.3C1706.7 1330.3 1877.3 1277.7 2048 1222.5C2218.7 1167.3 2389.3 1109.7 2474.7 1080.8L2560 1052L2560 1050L2474.7 1054.8C2389.3 1059.7 2218.7 1069.3 2048 1091C1877.3 1112.7 1706.7 1146.3 1536 1124.7C1365.3 1103 1194.7 1026 1024 1006.8C853.3 987.7 682.7 1026.3 512 1045.7C341.3 1065 170.7 1065 85.3 1065L0 1065Z" fill="#acafff"></path><path d="M0 1441L85.3 1441C170.7 1441 341.3 1441 512 1441C682.7 1441 853.3 1441 1024 1441C1194.7 1441 1365.3 1441 1536 1441C1706.7 1441 1877.3 1441 2048 1441C2218.7 1441 2389.3 1441 2474.7 1441L2560 1441L2560 1050L2474.7 1078.8C2389.3 1107.7 2218.7 1165.3 2048 1220.5C1877.3 1275.7 1706.7 1328.3 1536 1304.3C1365.3 1280.3 1194.7 1179.7 1024 1165.3C853.3 1151 682.7 1223 512 1266.2C341.3 1309.3 170.7 1323.7 85.3 1330.8L0 1338Z" fill="#0066ff"></path></svg>