<svg id="visual" viewBox="0 0 700 1400" width="700" height="1400" xmlns="http://www.w3.org/2000/svg" xmlns:xlink="http://www.w3.org/1999/xlink" version="1.1"><path d="M649 1400L444 1400L444 1339L538 1339L538 1278L697 1278L697 1217L546 1217L546 1157L555 1157L555 1096L599 1096L599 1035L612 1035L612 974L591 974L591 913L525 913L525 852L454 852L454 791L608 791L608 730L556 730L556 670L637 670L637 609L632 609L632 548L574 548L574 487L641 487L641 426L433 426L433 365L617 365L617 304L456 304L456 243L643 243L643 183L622 183L622 122L453 122L453 61L636 61L636 0L700 0L700 61L700 61L700 122L700 122L700 183L700 183L700 243L700 243L700 304L700 304L700 365L700 365L700 426L700 426L700 487L700 487L700 548L700 548L700 609L700 609L700 670L700 670L700 730L700 730L700 791L700 791L700 852L700 852L700 913L700 913L700 974L700 974L700 1035L700 1035L700 1096L700 1096L700 1157L700 1157L700 1217L700 1217L700 1278L700 1278L700 1339L700 1339L700 1400L700 1400Z" fill="#4facf7"></path><path d="M523 1400L659 1400L659 1339L491 1339L491 1278L494 1278L494 1217L683 1217L683 1157L499 1157L499 1096L606 1096L606 1035L508 1035L508 974L516 974L516 913L612 913L612 852L652 852L652 791L672 791L672 730L562 730L562 670L602 670L602 609L625 609L625 548L622 548L622 487L504 487L504 426L446 426L446 365L594 365L594 304L649 304L649 243L648 243L648 183L677 183L677 122L604 122L604 61L621 61L621 0L700 0L700 61L700 61L700 122L700 122L700 183L700 183L700 243L700 243L700 304L700 304L700 365L700 365L700 426L700 426L700 487L700 487L700 548L700 548L700 609L700 609L700 670L700 670L700 730L700 730L700 791L700 791L700 852L700 852L700 913L700 913L700 974L700 974L700 1035L700 1035L700 1096L700 1096L700 1157L700 1157L700 1217L700 1217L700 1278L700 1278L700 1339L700 1339L700 1400L700 1400Z" fill="#499be1"></path><path d="M659 1400L641 1400L641 1339L616 1339L616 1278L655 1278L655 1217L679 1217L679 1157L471 1157L471 1096L487 1096L487 1035L561 1035L561 974L663 974L663 913L540 913L540 852L663 852L663 791L541 791L541 730L646 730L646 670L638 670L638 609L526 609L526 548L604 548L604 487L609 487L609 426L560 426L560 365L672 365L672 304L643 304L643 243L572 243L572 183L555 183L555 122L565 122L565 61L582 61L582 0L700 0L700 61L700 61L700 122L700 122L700 183L700 183L700 243L700 243L700 304L700 304L700 365L700 365L700 426L700 426L700 487L700 487L700 548L700 548L700 609L700 609L700 670L700 670L700 730L700 730L700 791L700 791L700 852L700 852L700 913L700 913L700 974L700 974L700 1035L700 1035L700 1096L700 1096L700 1157L700 1157L700 1217L700 1217L700 1278L700 1278L700 1339L700 1339L700 1400L700 1400Z" fill="#438bcc"></path><path d="M680 1400L682 1400L682 1339L610 1339L610 1278L544 1278L544 1217L669 1217L669 1157L675 1157L675 1096L608 1096L608 1035L658 1035L658 974L629 974L629 913L595 913L595 852L674 852L674 791L592 791L592 730L652 730L652 670L686 670L686 609L657 609L657 548L653 548L653 487L670 487L670 426L636 426L636 365L583 365L583 304L641 304L641 243L506 243L506 183L610 183L610 122L525 122L525 61L701 61L701 0L700 0L700 61L700 61L700 122L700 122L700 183L700 183L700 243L700 243L700 304L700 304L700 365L700 365L700 426L700 426L700 487L700 487L700 548L700 548L700 609L700 609L700 670L700 670L700 730L700 730L700 791L700 791L700 852L700 852L700 913L700 913L700 974L700 974L700 1035L700 1035L700 1096L700 1096L700 1157L700 1157L700 1217L700 1217L700 1278L700 1278L700 1339L700 1339L700 1400L700 1400Z" fill="#3d7cb7"></path><path d="M623 1400L692 1400L692 1339L543 1339L543 1278L515 1278L515 1217L683 1217L683 1157L687 1157L687 1096L560 1096L560 1035L592 1035L592 974L669 974L669 913L616 913L616 852L566 852L566 791L510 791L510 730L701 730L701 670L638 670L638 609L695 609L695 548L551 548L551 487L520 487L520 426L531 426L531 365L618 365L618 304L508 304L508 243L578 243L578 183L586 183L586 122L650 122L650 61L537 61L537 0L700 0L700 61L700 61L700 122L700 122L700 183L700 183L700 243L700 243L700 304L700 304L700 365L700 365L700 426L700 426L700 487L700 487L700 548L700 548L700 609L700 609L700 670L700 670L700 730L700 730L700 791L700 791L700 852L700 852L700 913L700 913L700 974L700 974L700 1035L700 1035L700 1096L700 1096L700 1157L700 1157L700 1217L700 1217L700 1278L700 1278L700 1339L700 1339L700 1400L700 1400Z" fill="#366ca2"></path><path d="M592 1400L651 1400L651 1339L663 1339L663 1278L564 1278L564 1217L588 1217L588 1157L667 1157L667 1096L602 1096L602 1035L540 1035L540 974L620 974L620 913L628 913L628 852L559 852L559 791L610 791L610 730L576 730L576 670L642 670L642 609L543 609L543 548L685 548L685 487L557 487L557 426L619 426L619 365L678 365L678 304L548 304L548 243L596 243L596 183L560 183L560 122L602 122L602 61L641 61L641 0L700 0L700 61L700 61L700 122L700 122L700 183L700 183L700 243L700 243L700 304L700 304L700 365L700 365L700 426L700 426L700 487L700 487L700 548L700 548L700 609L700 609L700 670L700 670L700 730L700 730L700 791L700 791L700 852L700 852L700 913L700 913L700 974L700 974L700 1035L700 1035L700 1096L700 1096L700 1157L700 1157L700 1217L700 1217L700 1278L700 1278L700 1339L700 1339L700 1400L700 1400Z" fill="#2f5d8e"></path><path d="M603 1400L611 1400L611 1339L575 1339L575 1278L664 1278L664 1217L679 1217L679 1157L570 1157L570 1096L570 1096L570 1035L686 1035L686 974L564 974L564 913L649 913L649 852L588 852L588 791L642 791L642 730L655 730L655 670L571 670L571 609L613 609L613 548L632 548L632 487L624 487L624 426L698 426L698 365L674 365L674 304L666 304L666 243L694 243L694 183L656 183L656 122L648 122L648 61L569 61L569 0L700 0L700 61L700 61L700 122L700 122L700 183L700 183L700 243L700 243L700 304L700 304L700 365L700 365L700 426L700 426L700 487L700 487L700 548L700 548L700 609L700 609L700 670L700 670L700 730L700 730L700 791L700 791L700 852L700 852L700 913L700 913L700 974L700 974L700 1035L700 1035L700 1096L700 1096L700 1157L700 1157L700 1217L700 1217L700 1278L700 1278L700 1339L700 1339L700 1400L700 1400Z" fill="#274f7a"></path><path d="M623 1400L624 1400L624 1339L629 1339L629 1278L608 1278L608 1217L598 1217L598 1157L631 1157L631 1096L642 1096L642 1035L602 1035L602 974L639 974L639 913L663 913L663 852L663 852L663 791L646 791L646 730L679 730L679 670L691 670L691 609L599 609L599 548L638 548L638 487L609 487L609 426L581 426L581 365L624 365L624 304L680 304L680 243L575 243L575 183L594 183L594 122L659 122L659 61L580 61L580 0L700 0L700 61L700 61L700 122L700 122L700 183L700 183L700 243L700 243L700 304L700 304L700 365L700 365L700 426L700 426L700 487L700 487L700 548L700 548L700 609L700 609L700 670L700 670L700 730L700 730L700 791L700 791L700 852L700 852L700 913L700 913L700 974L700 974L700 1035L700 1035L700 1096L700 1096L700 1157L700 1157L700 1217L700 1217L700 1278L700 1278L700 1339L700 1339L700 1400L700 1400Z" fill="#204167"></path><path d="M697 1400L679 1400L679 1339L665 1339L665 1278L697 1278L697 1217L598 1217L598 1157L662 1157L662 1096L625 1096L625 1035L643 1035L643 974L650 974L650 913L617 913L617 852L613 852L613 791L638 791L638 730L666 730L666 670L629 670L629 609L641 609L641 548L690 548L690 487L600 487L600 426L610 426L610 365L615 365L615 304L600 304L600 243L653 243L653 183L695 183L695 122L637 122L637 61L633 61L633 0L700 0L700 61L700 61L700 122L700 122L700 183L700 183L700 243L700 243L700 304L700 304L700 365L700 365L700 426L700 426L700 487L700 487L700 548L700 548L700 609L700 609L700 670L700 670L700 730L700 730L700 791L700 791L700 852L700 852L700 913L700 913L700 974L700 974L700 1035L700 1035L700 1096L700 1096L700 1157L700 1157L700 1217L700 1217L700 1278L700 1278L700 1339L700 1339L700 1400L700 1400Z" fill="#183454"></path><path d="M693 1400L683 1400L683 1339L698 1339L698 1278L648 1278L648 1217L668 1217L668 1157L683 1157L683 1096L655 1096L655 1035L647 1035L647 974L667 974L667 913L676 913L676 852L619 852L619 791L643 791L643 730L700 730L700 670L696 670L696 609L700 609L700 548L664 548L664 487L673 487L673 426L672 426L672 365L690 365L690 304L623 304L623 243L636 243L636 183L700 183L700 122L629 122L629 61L622 61L622 0L700 0L700 61L700 61L700 122L700 122L700 183L700 183L700 243L700 243L700 304L700 304L700 365L700 365L700 426L700 426L700 487L700 487L700 548L700 548L700 609L700 609L700 670L700 670L700 730L700 730L700 791L700 791L700 852L700 852L700 913L700 913L700 974L700 974L700 1035L700 1035L700 1096L700 1096L700 1157L700 1157L700 1217L700 1217L700 1278L700 1278L700 1339L700 1339L700 1400L700 1400Z" fill="#102742"></path><path d="M666 1400L674 1400L674 1339L701 1339L701 1278L682 1278L682 1217L639 1217L639 1157L699 1157L699 1096L651 1096L651 1035L661 1035L661 974L673 974L673 913L670 913L670 852L661 852L661 791L663 791L663 730L665 730L665 670L672 670L672 609L663 609L663 548L700 548L700 487L677 487L677 426L662 426L662 365L654 365L654 304L650 304L650 243L689 243L689 183L646 183L646 122L652 122L652 61L671 61L671 0L700 0L700 61L700 61L700 122L700 122L700 183L700 183L700 243L700 243L700 304L700 304L700 365L700 365L700 426L700 426L700 487L700 487L700 548L700 548L700 609L700 609L700 670L700 670L700 730L700 730L700 791L700 791L700 852L700 852L700 913L700 913L700 974L700 974L700 1035L700 1035L700 1096L700 1096L700 1157L700 1157L700 1217L700 1217L700 1278L700 1278L700 1339L700 1339L700 1400L700 1400Z" fill="#081b31"></path><path d="M688 1400L680 1400L680 1339L692 1339L692 1278L666 1278L666 1217L662 1217L662 1157L676 1157L676 1096L669 1096L669 1035L666 1035L666 974L676 974L676 913L665 913L665 852L672 852L672 791L699 791L699 730L694 730L694 670L689 670L689 609L680 609L680 548L688 548L688 487L660 487L660 426L678 426L678 365L685 365L685 304L689 304L689 243L683 243L683 183L693 183L693 122L658 122L658 61L687 61L687 0L700 0L700 61L700 61L700 122L700 122L700 183L700 183L700 243L700 243L700 304L700 304L700 365L700 365L700 426L700 426L700 487L700 487L700 548L700 548L700 609L700 609L700 670L700 670L700 730L700 730L700 791L700 791L700 852L700 852L700 913L700 913L700 974L700 974L700 1035L700 1035L700 1096L700 1096L700 1157L700 1157L700 1217L700 1217L700 1278L700 1278L700 1339L700 1339L700 1400L700 1400Z" fill="#000d21"></path></svg>